P3
36 36
255
255 255 255 255 255 255 255 255 255 255 255 255 255 255 255 255 255 255 255 255 255 255 255 255 255 255 255 255 255 255 254 254 254 254 254 254 255 255 255 255 255 255 252 252 252 255 255 255 254 254 254 255 255 255 252 252 252 255 255 255 255 255 255 253 253 253 255 255 255 255 255 255 255 255 255 254 254 254 255 255 255 255 255 255 255 255 255 253 253 253 255 255 255 255 255 255 255 255 255 255 255 255 255 255 255 255 255 255 
255 255 255 255 255 255 255 255 255 255 255 255 255 255 255 255 255 255 255 255 255 255 255 255 255 255 255 255 255 255 253 253 253 255 255 255 253 253 253 253 253 253 255 255 255 254 254 254 255 255 255 220 220 220 255 255 255 254 254 254 255 255 255 255 255 255 255 255 255 255 255 255 255 255 255 254 254 254 254 254 254 254 254 254 255 255 255 255 255 255 255 255 255 255 255 255 255 255 255 255 255 255 255 255 255 255 255 255 
255 255 255 255 255 255 255 255 255 255 255 255 255 255 255 255 255 255 255 255 255 255 255 255 252 252 252 255 255 255 254 254 254 254 254 254 255 255 255 255 255 255 251 251 251 255 255 255 224 224 224 32 32 32 255 255 255 255 255 255 247 247 247 255 255 255 255 255 255 251 251 251 255 255 255 255 255 255 255 255 255 254 254 254 254 254 254 255 255 255 255 255 255 254 254 254 255 255 255 255 255 255 255 255 255 255 255 255 
255 255 255 255 255 255 255 255 255 255 255 255 255 255 255 255 255 255 255 255 255 255 255 255 254 254 254 255 255 255 255 255 255 255 255 255 255 255 255 254 254 254 254 254 254 223 223 223 29 29 29 0 0 0 255 255 255 255 255 255 255 255 255 254 254 254 254 254 254 255 255 255 254 254 254 255 255 255 255 255 255 255 255 255 255 255 255 254 254 254 254 254 254 255 255 255 255 255 255 255 255 255 255 255 255 255 255 255 
255 255 255 255 255 255 255 255 255 255 255 255 255 255 255 255 255 255 255 255 255 255 255 255 255 255 255 253 253 253 253 253 253 254 254 254 255 255 255 255 255 255 224 224 224 32 32 32 0 0 0 0 0 0 255 255 255 254 254 254 253 253 253 254 254 254 255 255 255 255 255 255 253 253 253 255 255 255 254 254 254 254 254 254 255 255 255 254 254 254 254 254 254 255 255 255 255 255 255 255 255 255 255 255 255 255 255 255 
255 255 255 255 255 255 255 255 255 255 255 255 255 255 255 255 255 255 255 255 255 255 255 255 254 254 254 255 255 255 253 253 253 255 255 255 250 250 250 224 224 224 32 32 32 2 2 2 2 2 2 0 0 0 255 255 255 253 253 253 254 254 254 255 255 255 253 253 253 255 255 255 255 255 255 255 255 255 254 254 254 253 253 253 255 255 255 255 255 255 254 254 254 255 255 255 255 255 255 255 255 255 255 255 255 255 255 255 
255 255 255 255 255 255 255 255 255 255 255 255 255 255 255 255 255 255 255 255 255 255 255 255 255 255 255 253 253 253 255 255 255 252 252 252 225 225 225 33 33 33 0 0 0 0 0 0 0 0 0 2 2 2 13 13 13 36 36 36 76 76 76 147 147 147 225 225 225 255 255 255 249 249 249 255 255 255 255 255 255 253 253 253 255 255 255 255 255 255 254 254 254 254 254 254 255 255 255 255 255 255 255 255 255 255 255 255 
255 255 255 255 255 255 255 255 255 255 255 255 255 255 255 255 255 255 255 255 255 255 255 255 255 255 255 254 254 254 254 254 254 254 254 254 64 64 64 0 0 0 0 0 0 2 2 2 1 1 1 0 0 0 0 0 0 0 0 0 0 0 0 0 0 0 6 6 6 100 100 100 234 234 234 251 251 251 255 255 255 253 253 253 254 254 254 255 255 255 255 255 255 255 255 255 255 255 255 255 255 255 255 255 255 255 255 255 
254 254 254 254 254 254 255 255 255 255 255 255 255 255 255 255 255 255 253 253 253 254 254 254 255 255 255 253 253 253 255 255 255 255 255 255 221 221 221 32 32 32 2 2 2 0 0 0 1 1 1 0 0 0 0 0 0 3 3 3 3 3 3 0 0 0 1 1 1 0 0 0 15 15 15 174 174 174 255 255 255 255 255 255 252 252 252 255 255 255 255 255 255 254 254 254 255 255 255 255 255 255 255 255 255 255 255 255 
255 255 255 255 255 255 251 251 251 254 254 254 255 255 255 254 254 254 255 255 255 255 255 255 255 255 255 255 255 255 255 255 255 250 250 250 255 255 255 222 222 222 31 31 31 1 1 1 1 1 1 0 0 0 245 245 245 218 218 218 149 149 149 68 68 68 3 3 3 0 0 0 0 0 0 5 5 5 145 145 145 255 255 255 254 254 254 255 255 255 254 254 254 255 255 255 255 255 255 255 255 255 255 255 255 255 255 255 
255 255 255 254 254 254 255 255 255 255 255 255 253 253 253 255 255 255 252 252 252 252 252 252 253 253 253 255 255 255 252 252 252 255 255 255 255 255 255 255 255 255 222 222 222 31 31 31 1 1 1 0 0 0 255 255 255 254 254 254 255 255 255 251 251 251 190 190 190 40 40 40 4 4 4 0 0 0 1 1 1 178 178 178 254 254 254 255 255 255 252 252 252 254 254 254 255 255 255 255 255 255 255 255 255 255 255 255 
255 255 255 255 255 255 254 254 254 253 253 253 253 253 253 255 255 255 255 255 255 235 235 235 248 248 248 254 254 254 253 253 253 255 255 255 255 255 255 254 254 254 255 255 255 221 221 221 33 33 33 0 0 0 254 254 254 255 255 255 255 255 255 255 255 255 255 255 255 236 236 236 57 57 57 2 2 2 0 0 0 9 9 9 232 232 232 253 253 253 255 255 255 253 253 253 255 255 255 255 255 255 255 255 255 255 255 255 
253 253 253 255 255 255 252 252 252 255 255 255 255 255 255 252 252 252 254 254 254 95 95 95 72 72 72 250 250 250 254 254 254 254 254 254 254 254 254 250 250 250 255 255 255 255 255 255 223 223 223 32 32 32 255 255 255 255 255 255 252 252 252 255 255 255 254 254 254 254 254 254 240 240 240 37 37 37 0 0 0 2 2 2 97 97 97 255 255 255 254 254 254 255 255 255 255 255 255 255 255 255 255 255 255 255 255 255 
255 255 255 255 255 255 255 255 255 254 254 254 255 255 255 255 255 255 230 230 230 2 2 2 0 0 0 72 72 72 254 254 254 254 254 254 255 255 255 255 255 255 255 255 255 251 251 251 254 254 254 225 225 225 253 253 253 254 254 254 255 255 255 255 255 255 255 255 255 254 254 254 254 254 254 187 187 187 0 0 0 0 0 0 5 5 5 228 228 228 254 254 254 254 254 254 255 255 255 255 255 255 255 255 255 255 255 255 
253 253 253 255 255 255 255 255 255 251 251 251 255 255 255 251 251 251 138 138 138 1 1 1 1 1 1 55 55 55 255 255 255 255 255 255 254 254 254 255 255 255 252 252 252 255 255 255 255 255 255 255 255 255 255 255 255 255 255 255 254 254 254 255 255 255 253 253 253 255 255 255 255 255 255 255 255 255 64 64 64 2 2 2 0 0 0 150 150 150 253 253 253 255 255 255 255 255 255 255 255 255 255 255 255 255 255 255 
255 255 255 254 254 254 255 255 255 255 255 255 254 254 254 255 255 255 75 75 75 0 0 0 1 1 1 153 153 153 255 255 255 255 255 255 255 255 255 252 252 252 255 255 255 255 255 255 255 255 255 254 254 254 254 254 254 255 255 255 255 255 255 255 255 255 252 252 252 255 255 255 254 254 254 254 254 254 154 154 154 0 0 0 0 0 0 72 72 72 255 255 255 255 255 255 255 255 255 255 255 255 255 255 255 255 255 255 
255 255 255 254 254 254 255 255 255 253 253 253 255 255 255 253 253 253 27 27 27 2 2 2 0 0 0 208 208 208 255 255 255 254 254 254 255 255 255 254 254 254 255 255 255 254 254 254 255 255 255 254 254 254 255 255 255 255 255 255 255 255 255 255 255 255 255 255 255 253 253 253 255 255 255 255 255 255 216 216 216 0 0 0 0 0 0 38 38 38 254 254 254 255 255 255 255 255 255 255 255 255 255 255 255 255 255 255 
254 254 254 254 254 254 255 255 255 255 255 255 253 253 253 255 255 255 10 10 10 0 0 0 0 0 0 238 238 238 255 255 255 255 255 255 252 252 252 255 255 255 254 254 254 255 255 255 252 252 252 255 255 255 254 254 254 253 253 253 255 255 255 254 254 254 255 255 255 254 254 254 252 252 252 255 255 255 237 237 237 0 0 0 2 2 2 15 15 15 255 255 255 253 253 253 255 255 255 255 255 255 255 255 255 255 255 255 
255 255 255 255 255 255 255 255 255 255 255 255 255 255 255 251 251 251 15 15 15 3 3 3 1 1 1 244 244 244 253 253 253 254 254 254 255 255 255 253 253 253 255 255 255 251 251 251 255 255 255 255 255 255 255 255 255 255 255 255 254 254 254 255 255 255 255 255 255 255 255 255 255 255 255 254 254 254 244 244 244 0 0 0 1 1 1 8 8 8 255 255 255 255 255 255 255 255 255 255 255 255 255 255 255 255 255 255 
255 255 255 250 250 250 255 255 255 254 254 254 253 253 253 255 255 255 41 41 41 0 0 0 0 0 0 213 213 213 255 255 255 255 255 255 255 255 255 253 253 253 255 255 255 255 255 255 255 255 255 255 255 255 255 255 255 254 254 254 255 255 255 254 254 254 255 255 255 250 250 250 255 255 255 253 253 253 205 205 205 1 1 1 0 0 0 27 27 27 254 254 254 255 255 255 255 255 255 255 255 255 255 255 255 255 255 255 
255 255 255 253 253 253 255 255 255 253 253 253 255 255 255 255 255 255 73 73 73 4 4 4 0 0 0 159 159 159 252 252 252 255 255 255 252 252 252 254 254 254 254 254 254 255 255 255 254 254 254 253 253 253 253 253 253 255 255 255 254 254 254 255 255 255 252 252 252 255 255 255 255 255 255 255 255 255 158 158 158 0 0 0 0 0 0 76 76 76 254 254 254 255 255 255 255 255 255 255 255 255 255 255 255 255 255 255 
254 254 254 255 255 255 254 254 254 253 253 253 255 255 255 253 253 253 146 146 146 0 0 0 0 0 0 69 69 69 255 255 255 255 255 255 255 255 255 255 255 255 255 255 255 251 251 251 255 255 255 253 253 253 255 255 255 255 255 255 255 255 255 254 254 254 255 255 255 251 251 251 255 255 255 254 254 254 55 55 55 4 4 4 2 2 2 139 139 139 255 255 255 252 252 252 255 255 255 255 255 255 255 255 255 255 255 255 
255 255 255 254 254 254 255 255 255 255 255 255 250 250 250 255 255 255 229 229 229 5 5 5 0 0 0 0 0 0 190 190 190 251 251 251 255 255 255 255 255 255 250 250 250 255 255 255 255 255 255 254 254 254 226 226 226 251 251 251 255 255 255 255 255 255 255 255 255 255 255 255 255 255 255 254 254 254 72 72 72 1 1 1 3 3 3 225 225 225 255 255 255 253 253 253 255 255 255 255 255 255 255 255 255 255 255 255 
255 255 255 255 255 255 253 253 253 255 255 255 255 255 255 255 255 255 253 253 253 100 100 100 0 0 0 0 0 0 38 38 38 240 240 240 253 253 253 254 254 254 255 255 255 254 254 254 254 254 254 255 255 255 31 31 31 223 223 223 255 255 255 254 254 254 255 255 255 254 254 254 255 255 255 254 254 254 248 248 248 71 71 71 97 97 97 255 255 255 253 253 253 255 255 255 255 255 255 255 255 255 255 255 255 255 255 255 
255 255 255 255 255 255 255 255 255 254 254 254 253 253 253 255 255 255 251 251 251 234 234 234 15 15 15 0 0 0 2 2 2 62 62 62 235 235 235 255 255 255 254 254 254 255 255 255 255 255 255 253 253 253 2 2 2 30 30 30 222 222 222 254 254 254 255 255 255 254 254 254 253 253 253 255 255 255 254 254 254 242 242 242 240 240 240 251 251 251 255 255 255 254 254 254 255 255 255 255 255 255 255 255 255 255 255 255 
254 254 254 254 254 254 255 255 255 255 255 255 254 254 254 255 255 255 255 255 255 249 249 249 176 176 176 4 4 4 0 0 0 2 2 2 39 39 39 188 188 188 255 255 255 253 253 253 254 254 254 253 253 253 0 0 0 4 4 4 32 32 32 224 224 224 255 255 255 253 253 253 255 255 255 255 255 255 255 255 255 254 254 254 253 253 253 255 255 255 255 255 255 255 255 255 255 255 255 255 255 255 255 255 255 255 255 255 
255 255 255 254 254 254 255 255 255 255 255 255 253 253 253 254 254 254 255 255 255 255 255 255 254 254 254 148 148 148 3 3 3 0 0 0 1 1 1 0 0 0 63 63 63 157 157 157 220 220 220 246 246 246 0 0 0 0 0 0 1 1 1 28 28 28 226 226 226 253 253 253 255 255 255 254 254 254 254 254 254 255 255 255 255 255 255 255 255 255 254 254 254 255 255 255 255 255 255 255 255 255 255 255 255 255 255 255 
255 255 255 254 254 254 254 254 254 255 255 255 254 254 254 254 254 254 254 254 254 253 253 253 255 255 255 253 253 253 177 177 177 12 12 12 0 0 0 1 1 1 2 2 2 0 0 0 0 0 0 0 0 0 2 2 2 0 0 0 1 1 1 2 2 2 30 30 30 226 226 226 255 255 255 255 255 255 254 254 254 253 253 253 254 254 254 255 255 255 255 255 255 255 255 255 255 255 255 255 255 255 255 255 255 255 255 255 
255 255 255 254 254 254 254 254 254 255 255 255 255 255 255 255 255 255 255 255 255 254 254 254 255 255 255 254 254 254 255 255 255 233 233 233 97 97 97 5 5 5 1 1 1 0 0 0 1 1 1 2 2 2 0 0 0 0 0 0 0 0 0 2 2 2 0 0 0 65 65 65 253 253 253 255 255 255 255 255 255 254 254 254 255 255 255 255 255 255 255 255 255 254 254 254 255 255 255 255 255 255 255 255 255 255 255 255 
254 254 254 255 255 255 255 255 255 254 254 254 254 254 254 255 255 255 255 255 255 255 255 255 255 255 255 254 254 254 255 255 255 249 249 249 255 255 255 224 224 224 148 148 148 75 75 75 36 36 36 11 11 11 0 0 0 0 0 0 1 1 1 0 0 0 31 31 31 222 222 222 255 255 255 255 255 255 255 255 255 255 255 255 255 255 255 255 255 255 255 255 255 255 255 255 255 255 255 255 255 255 255 255 255 255 255 255 
255 255 255 255 255 255 255 255 255 254 254 254 254 254 254 253 253 253 254 254 254 255 255 255 255 255 255 255 255 255 254 254 254 255 255 255 255 255 255 255 255 255 255 255 255 255 255 255 255 255 255 250 250 250 0 0 0 1 1 1 0 0 0 33 33 33 224 224 224 254 254 254 255 255 255 254 254 254 253 253 253 254 254 254 254 254 254 253 253 253 254 254 254 255 255 255 255 255 255 255 255 255 255 255 255 255 255 255 
255 255 255 255 255 255 253 253 253 255 255 255 255 255 255 255 255 255 254 254 254 255 255 255 254 254 254 255 255 255 254 254 254 255 255 255 254 254 254 255 255 255 255 255 255 254 254 254 253 253 253 255 255 255 2 2 2 0 0 0 33 33 33 221 221 221 255 255 255 255 255 255 255 255 255 255 255 255 255 255 255 255 255 255 255 255 255 255 255 255 255 255 255 254 254 254 255 255 255 255 255 255 255 255 255 255 255 255 
255 255 255 255 255 255 255 255 255 255 255 255 255 255 255 255 255 255 255 255 255 255 255 255 255 255 255 255 255 255 255 255 255 255 255 255 255 255 255 255 255 255 255 255 255 255 255 255 255 255 255 253 253 253 0 0 0 33 33 33 223 223 223 252 252 252 255 255 255 252 252 252 255 255 255 255 255 255 255 255 255 255 255 255 255 255 255 255 255 255 255 255 255 255 255 255 255 255 255 255 255 255 255 255 255 255 255 255 
255 255 255 255 255 255 255 255 255 255 255 255 255 255 255 255 255 255 255 255 255 255 255 255 255 255 255 255 255 255 255 255 255 255 255 255 255 255 255 255 255 255 255 255 255 255 255 255 254 254 254 255 255 255 32 32 32 225 225 225 253 253 253 255 255 255 252 252 252 255 255 255 255 255 255 255 255 255 255 255 255 255 255 255 255 255 255 255 255 255 255 255 255 255 255 255 255 255 255 255 255 255 255 255 255 255 255 255 
255 255 255 255 255 255 255 255 255 255 255 255 255 255 255 255 255 255 255 255 255 255 255 255 255 255 255 255 255 255 255 255 255 255 255 255 255 255 255 255 255 255 255 255 255 255 255 255 254 254 254 253 253 253 223 223 223 253 253 253 255 255 255 253 253 253 255 255 255 251 251 251 255 255 255 255 255 255 255 255 255 255 255 255 255 255 255 255 255 255 255 255 255 255 255 255 255 255 255 255 255 255 255 255 255 255 255 255 
255 255 255 255 255 255 255 255 255 255 255 255 255 255 255 255 255 255 255 255 255 255 255 255 255 255 255 255 255 255 255 255 255 255 255 255 255 255 255 255 255 255 255 255 255 255 255 255 255 255 255 255 255 255 255 255 255 253 253 253 255 255 255 255 255 255 255 255 255 255 255 255 255 255 255 255 255 255 255 255 255 255 255 255 255 255 255 255 255 255 255 255 255 255 255 255 255 255 255 255 255 255 255 255 255 255 255 255 
