P3
36 36
255
255 255 255 255 255 255 255 255 255 255 255 255 255 255 255 255 255 255 255 255 255 255 255 255 255 255 255 255 255 255 255 255 255 255 255 255 255 255 255 255 255 255 255 255 255 255 255 255 254 254 254 254 254 254 255 255 255 252 252 252 255 255 255 254 254 254 255 255 255 254 254 254 255 255 255 253 253 253 255 255 255 255 255 255 254 254 254 255 255 255 254 254 254 254 254 254 255 255 255 255 255 255 255 255 255 255 255 255 
255 255 255 255 255 255 255 255 255 255 255 255 255 255 255 255 255 255 255 255 255 255 255 255 255 255 255 255 255 255 255 255 255 255 255 255 255 255 255 255 255 255 255 255 255 255 255 255 255 255 255 254 254 254 255 255 255 255 255 255 255 255 255 253 253 253 255 255 255 255 255 255 254 254 254 255 255 255 255 255 255 253 253 253 255 255 255 255 255 255 255 255 255 255 255 255 255 255 255 255 255 255 255 255 255 255 255 255 
255 255 255 255 255 255 255 255 255 255 255 255 255 255 255 255 255 255 255 255 255 255 255 255 255 255 255 255 255 255 255 255 255 255 255 255 255 255 255 255 255 255 255 255 255 255 255 255 255 255 255 253 253 253 255 255 255 248 248 248 255 255 255 255 255 255 254 254 254 255 255 255 252 252 252 255 255 255 255 255 255 253 253 253 255 255 255 252 252 252 255 255 255 255 255 255 255 255 255 255 255 255 255 255 255 255 255 255 
255 255 255 255 255 255 255 255 255 255 255 255 255 255 255 255 255 255 255 255 255 255 255 255 255 255 255 255 255 255 255 255 255 255 255 255 255 255 255 255 255 255 255 255 255 255 255 255 255 255 255 255 255 255 253 253 253 255 255 255 255 255 255 253 253 253 252 252 252 255 255 255 255 255 255 255 255 255 255 255 255 255 255 255 255 255 255 255 255 255 251 251 251 255 255 255 255 255 255 255 255 255 255 255 255 255 255 255 
255 255 255 255 255 255 255 255 255 255 255 255 255 255 255 255 255 255 255 255 255 255 255 255 255 255 255 255 255 255 255 255 255 255 255 255 255 255 255 255 255 255 255 255 255 255 255 255 255 255 255 251 251 251 255 255 255 220 220 220 130 130 130 127 127 127 130 130 130 128 128 128 128 128 128 127 127 127 128 128 128 129 129 129 127 127 127 129 129 129 129 129 129 189 189 189 255 255 255 255 255 255 255 255 255 255 255 255 
255 255 255 255 255 255 255 255 255 255 255 255 255 255 255 255 255 255 255 255 255 255 255 255 255 255 255 255 255 255 255 255 255 255 255 255 255 255 255 255 255 255 255 255 255 255 255 255 253 253 253 255 255 255 255 255 255 255 255 255 130 130 130 0 0 0 0 0 0 0 0 0 0 0 0 1 1 1 1 1 1 0 0 0 0 0 0 0 0 0 4 4 4 128 128 128 255 255 255 255 255 255 255 255 255 255 255 255 
255 255 255 255 255 255 255 255 255 255 255 255 255 255 255 255 255 255 255 255 255 255 255 255 255 255 255 255 255 255 255 255 255 255 255 255 255 255 255 255 255 255 255 255 255 255 255 255 254 254 254 255 255 255 250 250 250 253 253 253 254 254 254 129 129 129 0 0 0 0 0 0 2 2 2 0 0 0 0 0 0 0 0 0 5 5 5 0 0 0 0 0 0 129 129 129 255 255 255 255 255 255 255 255 255 255 255 255 
255 255 255 255 255 255 255 255 255 255 255 255 255 255 255 255 255 255 255 255 255 255 255 255 255 255 255 255 255 255 255 255 255 255 255 255 255 255 255 255 255 255 255 255 255 255 255 255 255 255 255 253 253 253 255 255 255 255 255 255 255 255 255 253 253 253 129 129 129 0 0 0 2 2 2 0 0 0 4 4 4 0 0 0 0 0 0 0 0 0 4 4 4 127 127 127 255 255 255 255 255 255 255 255 255 255 255 255 
255 255 255 255 255 255 255 255 255 255 255 255 255 255 255 255 255 255 255 255 255 255 255 255 255 255 255 255 255 255 255 255 255 255 255 255 255 255 255 255 255 255 255 255 255 255 255 255 255 255 255 255 255 255 252 252 252 255 255 255 255 255 255 252 252 252 255 255 255 129 129 129 0 0 0 0 0 0 0 0 0 1 1 1 0 0 0 0 0 0 3 3 3 127 127 127 255 255 255 255 255 255 255 255 255 255 255 255 
255 255 255 255 255 255 255 255 255 255 255 255 255 255 255 255 255 255 255 255 255 255 255 255 255 255 255 255 255 255 255 255 255 255 255 255 255 255 255 255 255 255 255 255 255 255 255 255 255 255 255 254 254 254 255 255 255 253 253 253 255 255 255 255 255 255 255 255 255 252 252 252 51 51 51 0 0 0 1 1 1 1 1 1 0 0 0 1 1 1 0 0 0 130 130 130 255 255 255 255 255 255 255 255 255 255 255 255 
255 255 255 255 255 255 255 255 255 255 255 255 255 255 255 255 255 255 255 255 255 255 255 255 255 255 255 255 255 255 255 255 255 255 255 255 255 255 255 255 255 255 255 255 255 255 255 255 252 252 252 255 255 255 254 254 254 255 255 255 255 255 255 252 252 252 253 253 253 98 98 98 1 1 1 1 1 1 0 0 0 0 0 0 7 7 7 0 0 0 0 0 0 127 127 127 255 255 255 255 255 255 255 255 255 255 255 255 
255 255 255 255 255 255 255 255 255 255 255 255 255 255 255 255 255 255 255 255 255 255 255 255 255 255 255 255 255 255 255 255 255 255 255 255 255 255 255 255 255 255 255 255 255 255 255 255 255 255 255 255 255 255 255 255 255 253 253 253 253 253 253 255 255 255 97 97 97 0 0 0 0 0 0 1 1 1 49 49 49 0 0 0 0 0 0 1 1 1 1 1 1 130 130 130 255 255 255 255 255 255 255 255 255 255 255 255 
255 255 255 255 255 255 255 255 255 255 255 255 255 255 255 255 255 255 255 255 255 255 255 255 255 255 255 255 255 255 255 255 255 255 255 255 255 255 255 255 255 255 255 255 255 255 255 255 253 253 253 253 253 253 253 253 253 255 255 255 254 254 254 97 97 97 0 0 0 0 0 0 0 0 0 99 99 99 254 254 254 130 130 130 3 3 3 0 0 0 0 0 0 129 129 129 255 255 255 255 255 255 255 255 255 255 255 255 
255 255 255 255 255 255 255 255 255 255 255 255 255 255 255 255 255 255 255 255 255 255 255 255 255 255 255 255 255 255 255 255 255 255 255 255 255 255 255 255 255 255 255 255 255 255 255 255 255 255 255 255 255 255 255 255 255 251 251 251 96 96 96 0 0 0 3 3 3 1 1 1 98 98 98 250 250 250 253 253 253 255 255 255 127 127 127 1 1 1 0 0 0 128 128 128 255 255 255 255 255 255 255 255 255 255 255 255 
255 255 255 255 255 255 255 255 255 255 255 255 255 255 255 255 255 255 255 255 255 255 255 255 255 255 255 255 255 255 255 255 255 255 255 255 255 255 255 255 255 255 255 255 255 255 255 255 255 255 255 255 255 255 251 251 251 96 96 96 4 4 4 1 1 1 0 0 0 98 98 98 252 252 252 255 255 255 255 255 255 253 253 253 255 255 255 129 129 129 0 0 0 128 128 128 255 255 255 255 255 255 255 255 255 255 255 255 
255 255 255 255 255 255 255 255 255 255 255 255 255 255 255 255 255 255 255 255 255 255 255 255 255 255 255 255 255 255 255 255 255 255 255 255 255 255 255 255 255 255 255 255 255 255 255 255 255 255 255 252 252 252 97 97 97 1 1 1 0 0 0 0 0 0 102 102 102 250 250 250 253 253 253 255 255 255 254 254 254 255 255 255 253 253 253 255 255 255 126 126 126 129 129 129 255 255 255 255 255 255 255 255 255 255 255 255 
254 254 254 255 255 255 255 255 255 251 251 251 255 255 255 255 255 255 255 255 255 255 255 255 254 254 254 255 255 255 252 252 252 255 255 255 254 254 254 254 254 254 255 255 255 255 255 255 255 255 255 96 96 96 0 0 0 1 1 1 0 0 0 98 98 98 253 253 253 254 254 254 255 255 255 254 254 254 255 255 255 255 255 255 254 254 254 255 255 255 251 251 251 225 225 225 255 255 255 255 255 255 255 255 255 255 255 255 
253 253 253 253 253 253 255 255 255 255 255 255 253 253 253 255 255 255 255 255 255 255 255 255 255 255 255 251 251 251 255 255 255 255 255 255 255 255 255 253 253 253 255 255 255 251 251 251 95 95 95 0 0 0 2 2 2 0 0 0 99 99 99 253 253 253 254 254 254 255 255 255 255 255 255 253 253 253 255 255 255 255 255 255 253 253 253 255 255 255 255 255 255 251 251 251 255 255 255 255 255 255 255 255 255 255 255 255 
255 255 255 255 255 255 255 255 255 250 250 250 255 255 255 255 255 255 253 253 253 254 254 254 255 255 255 255 255 255 252 252 252 255 255 255 252 252 252 255 255 255 255 255 255 98 98 98 0 0 0 3 3 3 0 0 0 95 95 95 255 255 255 255 255 255 253 253 253 255 255 255 255 255 255 253 253 253 255 255 255 255 255 255 255 255 255 254 254 254 255 255 255 255 255 255 255 255 255 255 255 255 255 255 255 255 255 255 
251 251 251 255 255 255 250 250 250 255 255 255 224 224 224 254 254 254 255 255 255 255 255 255 255 255 255 255 255 255 255 255 255 255 255 255 255 255 255 252 252 252 94 94 94 0 0 0 0 0 0 2 2 2 96 96 96 250 250 250 255 255 255 253 253 253 255 255 255 255 255 255 255 255 255 255 255 255 254 254 254 254 254 254 255 255 255 255 255 255 254 254 254 252 252 252 255 255 255 255 255 255 255 255 255 255 255 255 
255 255 255 254 254 254 255 255 255 255 255 255 128 128 128 127 127 127 252 252 252 255 255 255 253 253 253 255 255 255 255 255 255 254 254 254 251 251 251 100 100 100 0 0 0 4 4 4 2 2 2 97 97 97 253 253 253 255 255 255 253 253 253 255 255 255 255 255 255 251 251 251 255 255 255 255 255 255 255 255 255 253 253 253 254 254 254 255 255 255 255 255 255 255 255 255 255 255 255 255 255 255 255 255 255 255 255 255 
254 254 254 252 252 252 255 255 255 254 254 254 128 128 128 3 3 3 127 127 127 254 254 254 255 255 255 252 252 252 254 254 254 255 255 255 95 95 95 0 0 0 1 1 1 0 0 0 98 98 98 250 250 250 255 255 255 255 255 255 253 253 253 255 255 255 253 253 253 255 255 255 255 255 255 255 255 255 255 255 255 255 255 255 255 255 255 254 254 254 254 254 254 255 255 255 255 255 255 255 255 255 255 255 255 255 255 255 
254 254 254 255 255 255 255 255 255 254 254 254 125 125 125 0 0 0 1 1 1 130 130 130 255 255 255 255 255 255 254 254 254 96 96 96 2 2 2 2 2 2 0 0 0 97 97 97 251 251 251 255 255 255 253 253 253 255 255 255 255 255 255 251 251 251 255 255 255 255 255 255 255 255 255 253 253 253 254 254 254 255 255 255 255 255 255 254 254 254 253 253 253 254 254 254 255 255 255 255 255 255 255 255 255 255 255 255 
255 255 255 254 254 254 255 255 255 255 255 255 127 127 127 0 0 0 0 0 0 0 0 0 128 128 128 253 253 253 95 95 95 2 2 2 0 0 0 0 0 0 100 100 100 251 251 251 255 255 255 254 254 254 255 255 255 255 255 255 253 253 253 255 255 255 255 255 255 253 253 253 254 254 254 255 255 255 255 255 255 255 255 255 254 254 254 255 255 255 255 255 255 255 255 255 255 255 255 255 255 255 255 255 255 255 255 255 
255 255 255 254 254 254 254 254 254 255 255 255 127 127 127 0 0 0 2 2 2 0 0 0 0 0 0 50 50 50 0 0 0 0 0 0 0 0 0 98 98 98 254 254 254 254 254 254 255 255 255 255 255 255 255 255 255 254 254 254 255 255 255 255 255 255 255 255 255 255 255 255 255 255 255 255 255 255 255 255 255 255 255 255 255 255 255 255 255 255 255 255 255 255 255 255 255 255 255 255 255 255 255 255 255 255 255 255 
252 252 252 254 254 254 255 255 255 255 255 255 129 129 129 2 2 2 0 0 0 0 0 0 3 3 3 0 0 0 0 0 0 0 0 0 99 99 99 252 252 252 255 255 255 254 254 254 254 254 254 253 253 253 254 254 254 255 255 255 255 255 255 254 254 254 254 254 254 255 255 255 255 255 255 255 255 255 255 255 255 255 255 255 255 255 255 255 255 255 255 255 255 255 255 255 255 255 255 255 255 255 255 255 255 255 255 255 
255 255 255 255 255 255 255 255 255 253 253 253 129 129 129 2 2 2 0 0 0 1 1 1 0 0 0 1 1 1 1 1 1 52 52 52 254 254 254 253 253 253 254 254 254 255 255 255 255 255 255 254 254 254 254 254 254 255 255 255 255 255 255 255 255 255 255 255 255 255 255 255 255 255 255 255 255 255 255 255 255 255 255 255 255 255 255 255 255 255 255 255 255 255 255 255 255 255 255 255 255 255 255 255 255 255 255 255 
253 253 253 254 254 254 255 255 255 255 255 255 128 128 128 0 0 0 0 0 0 2 2 2 3 3 3 1 1 1 0 0 0 0 0 0 125 125 125 255 255 255 254 254 254 255 255 255 255 255 255 255 255 255 255 255 255 254 254 254 253 253 253 255 255 255 255 255 255 255 255 255 255 255 255 255 255 255 255 255 255 255 255 255 255 255 255 255 255 255 255 255 255 255 255 255 255 255 255 255 255 255 255 255 255 255 255 255 
255 255 255 255 255 255 254 254 254 255 255 255 127 127 127 0 0 0 4 4 4 0 0 0 0 0 0 0 0 0 4 4 4 0 0 0 2 2 2 126 126 126 255 255 255 253 253 253 252 252 252 254 254 254 255 255 255 255 255 255 254 254 254 254 254 254 255 255 255 255 255 255 255 255 255 255 255 255 255 255 255 255 255 255 255 255 255 255 255 255 255 255 255 255 255 255 255 255 255 255 255 255 255 255 255 255 255 255 
255 255 255 253 253 253 253 253 253 255 255 255 128 128 128 0 0 0 1 1 1 0 0 0 0 0 0 4 4 4 0 0 0 0 0 0 2 2 2 0 0 0 128 128 128 255 255 255 255 255 255 255 255 255 254 254 254 255 255 255 255 255 255 255 255 255 253 253 253 255 255 255 255 255 255 255 255 255 255 255 255 255 255 255 255 255 255 255 255 255 255 255 255 255 255 255 255 255 255 255 255 255 255 255 255 255 255 255 
255 255 255 255 255 255 255 255 255 251 251 251 128 128 128 4 4 4 0 0 0 0 0 0 2 2 2 0 0 0 2 2 2 0 0 0 0 0 0 0 0 0 1 1 1 128 128 128 251 251 251 255 255 255 255 255 255 252 252 252 255 255 255 255 255 255 253 253 253 255 255 255 255 255 255 255 255 255 255 255 255 255 255 255 255 255 255 255 255 255 255 255 255 255 255 255 255 255 255 255 255 255 255 255 255 255 255 255 
254 254 254 255 255 255 255 255 255 255 255 255 190 190 190 127 127 127 129 129 129 128 128 128 128 128 128 127 127 127 128 128 128 131 131 131 126 126 126 130 130 130 128 128 128 128 128 128 225 225 225 250 250 250 255 255 255 253 253 253 254 254 254 255 255 255 254 254 254 255 255 255 255 255 255 255 255 255 255 255 255 255 255 255 255 255 255 255 255 255 255 255 255 255 255 255 255 255 255 255 255 255 255 255 255 255 255 255 
255 255 255 255 255 255 255 255 255 255 255 255 255 255 255 255 255 255 255 255 255 255 255 255 255 255 255 255 255 255 255 255 255 255 255 255 255 255 255 255 255 255 255 255 255 255 255 255 255 255 255 255 255 255 255 255 255 255 255 255 255 255 255 255 255 255 255 255 255 255 255 255 255 255 255 255 255 255 255 255 255 255 255 255 255 255 255 255 255 255 255 255 255 255 255 255 255 255 255 255 255 255 255 255 255 255 255 255 
255 255 255 255 255 255 255 255 255 255 255 255 255 255 255 255 255 255 255 255 255 255 255 255 255 255 255 255 255 255 255 255 255 255 255 255 255 255 255 255 255 255 255 255 255 255 255 255 255 255 255 255 255 255 255 255 255 255 255 255 255 255 255 255 255 255 255 255 255 255 255 255 255 255 255 255 255 255 255 255 255 255 255 255 255 255 255 255 255 255 255 255 255 255 255 255 255 255 255 255 255 255 255 255 255 255 255 255 
255 255 255 255 255 255 255 255 255 255 255 255 255 255 255 255 255 255 255 255 255 255 255 255 255 255 255 255 255 255 255 255 255 255 255 255 255 255 255 255 255 255 255 255 255 255 255 255 255 255 255 255 255 255 255 255 255 255 255 255 255 255 255 255 255 255 255 255 255 255 255 255 255 255 255 255 255 255 255 255 255 255 255 255 255 255 255 255 255 255 255 255 255 255 255 255 255 255 255 255 255 255 255 255 255 255 255 255 
255 255 255 255 255 255 255 255 255 255 255 255 255 255 255 255 255 255 255 255 255 255 255 255 255 255 255 255 255 255 255 255 255 255 255 255 255 255 255 255 255 255 255 255 255 255 255 255 255 255 255 255 255 255 255 255 255 255 255 255 255 255 255 255 255 255 255 255 255 255 255 255 255 255 255 255 255 255 255 255 255 255 255 255 255 255 255 255 255 255 255 255 255 255 255 255 255 255 255 255 255 255 255 255 255 255 255 255 
